<?xml version="1.0" encoding="utf-8"?>
<svg xmlns="http://www.w3.org/2000/svg" viewBox="0 0 64 64" width="512" height="512">
  <path d="M8 8L8 20L56 20L56 8L46 8L46 9C46 10.657 44.657 12 43 12C41.343 12 40 10.657 40 9L40 8L24 8L24 9C24 10.657 22.657 12 21 12C19.343 12 18 10.657 18 9L18 8L8 8 z M 8 22L8 56L56 56L56 24L52 23.832031L52 45C52 47 47 47 47 47C47 47 47 52 44 52L12 52L12 22.167969L8 22 z M 19 29L19 35L25 35L25 29L19 29 z M 29 29L29 35L35 35L35 29L29 29 z M 39 29L39 35L45 35L45 29L39 29 z M 19 39L19 45L25 45L25 39L19 39 z M 29 39L29 45L35 45L35 39L29 39 z M 39 39L39 45L45 45L45 39L39 39 z" />
</svg>