<?xml version="1.0" encoding="utf-8"?>
<svg xmlns="http://www.w3.org/2000/svg" viewBox="0 0 26 26" width="55" height="55">
  <path d="M13 0.03125C5.835938 0.03125 0.03125 5.835938 0.03125 13C0.03125 20.164063 5.835938 25.96875 13 25.96875C20.164063 25.96875 25.96875 20.164063 25.96875 13C25.96875 5.835938 20.164063 0.03125 13 0.03125 Z M 13 1.4375C18.492188 1.4375 23.101563 5.265625 24.28125 10.40625C24.207031 10.433594 24.132813 10.46875 24.03125 10.46875C21.433594 10.46875 19.445313 2.242188 12.6875 1.46875C12.792969 1.464844 12.894531 1.4375 13 1.4375 Z M 7.84375 3.40625C11.574219 3.40625 14.671875 7.363281 17.25 9.65625C19.5 11.65625 22.269531 13.996094 24.4375 14.5625C24.339844 15.273438 24.21875 15.960938 24 16.625C21.34375 16.332031 18.550781 14.777344 15.71875 12.90625C11.664063 10.234375 8.074219 7.03125 5.4375 7.03125C4.152344 7.03125 3.125 7.707031 2.375 8.40625C3.238281 6.417969 4.648438 4.726563 6.40625 3.5C6.816406 3.433594 7.285156 3.40625 7.84375 3.40625 Z M 3.5 17.0625C5.699219 17.0625 9.601563 20.9375 18.34375 20.9375C19.699219 20.9375 20.953125 20.664063 21.875 20.40625C21.011719 21.4375 19.949219 22.320313 18.78125 23C17.976563 23.148438 17.035156 23.28125 15.90625 23.28125C12.226563 23.28125 10.359375 22.125 8.59375 22.125C7.710938 22.125 7.511719 22.660156 7.53125 23.1875C5.203125 21.929688 3.335938 19.898438 2.3125 17.4375C2.582031 17.230469 2.953125 17.0625 3.5 17.0625Z" fill="#FFFFFF" />
</svg>