<?xml version="1.0" encoding="utf-8"?>
<svg xmlns="http://www.w3.org/2000/svg" viewBox="0 0 64 64" width="512" height="512">
  <path d="M53.800781 7.0039062C51.467704 6.9368562 48.211625 7.9765625 46.0625 10.125L42.9375 13.25L45.28125 15.59375C46.14425 14.73075 47.54325 14.73075 48.40625 15.59375C49.26925 16.45675 49.26925 17.85575 48.40625 18.71875L50.75 21.0625L53.875 17.9375C57 14.8125 57.78075 9.34425 56.21875 7.78125C55.730312 7.293125 54.861271 7.0343835 53.800781 7.0039062 z M 41.375 14.8125L12.46875 43.71875L15 46.25L12 47L10 49L15 54L17 52L17.75 49L20.28125 51.53125L20.28125 54.65625L22.625 57L25.75 57L35.90625 43.71875L37.46875 34.345703L37.46875 34.34375L49.189453 22.625L41.375 14.8125 z M 25.90625 27.15625L20.28125 28.09375L7 38.25L7 41.375L9.34375 43.71875L25.90625 27.15625 z" />
</svg>