<?xml version="1.0" encoding="utf-8"?>
<svg xmlns="http://www.w3.org/2000/svg" viewBox="0 0 30 30" width="480" height="480">
  <path d="M15 2C15 2 9 6 9 15C9 15.158852 9.0136525 15.317961 9.0234375 15.476562C7.9893702 16.312624 6 18.103518 6 19.544922C6 21.363922 7.8183594 25 7.8183594 25L11.119141 20.873047L12 23L18 23L18.880859 20.873047L22.181641 25C22.181641 25 24 21.363922 24 19.544922C24 18.103518 22.01063 16.312624 20.976562 15.476562C20.986348 15.317961 21 15.158852 21 15C21 6 15 2 15 2 z M 15 9C16.105 9 17 9.895 17 11C17 12.105 16.105 13 15 13C13.895 13 13 12.105 13 11C13 9.895 13.895 9 15 9 z M 12.417969 24C12.158969 24.334 12 24.717812 12 25.132812C12 27.035813 15 29 15 29C15 29 18 27.061812 18 25.132812C18 24.717813 17.841984 24.335 17.583984 24L16.738281 24C16.756281 24.077 16.800781 24.145562 16.800781 24.226562C16.800781 25.585562 15 26.265625 15 26.265625C15 26.265625 13.199219 25.585562 13.199219 24.226562C13.199219 24.146563 13.243719 24.077 13.261719 24L12.417969 24 z" />
</svg>