<?xml version="1.0" encoding="utf-8"?>
<svg xmlns="http://www.w3.org/2000/svg" viewBox="0 0 64 64" width="512" height="512">
  <linearGradient id="J0BGbH9bfDgQk_VFK6wMha" x1="39.001" x2="39.001" y1="9.334" y2="53.672" gradientUnits="userSpaceOnUse" spreadMethod="reflect">
    <stop offset="0" stop-color="#1a6dff" />
    <stop offset="1" stop-color="#c822ff" />
  </linearGradient>
  <path fill="url(#J0BGbH9bfDgQk_VFK6wMha)" d="M56.437,29.202l-31.848-18.78c-1.061-0.627-2.331-0.551-3.315,0.196 c-1.052,0.799-1.506,2.16-1.155,3.469l4.703,17.563c0.062,0.229,0.062,0.471,0,0.699l-4.703,17.563 c-0.351,1.309,0.104,2.67,1.155,3.469C21.814,53.792,22.441,54,23.072,54c0.518,0,1.039-0.14,1.517-0.422l31.848-18.78 C57.416,34.221,58,33.175,58,32C58,30.825,57.416,29.779,56.437,29.202z M55.421,33.075l-31.848,18.78 c-0.492,0.292-0.894,0.084-1.09-0.066c-0.32-0.243-0.603-0.728-0.434-1.358L26.717,33H38v-2H26.717L22.05,13.569 c-0.169-0.631,0.113-1.115,0.434-1.358c0.195-0.149,0.597-0.357,1.09-0.066l31.848,18.78C55.784,31.139,56,31.541,56,32 S55.784,32.861,55.421,33.075z" />
  <linearGradient id="J0BGbH9bfDgQk_VFK6wMhb" x1="10" x2="10" y1="9.333" y2="53.672" gradientUnits="userSpaceOnUse" spreadMethod="reflect">
    <stop offset="0" stop-color="#1a6dff" />
    <stop offset="1" stop-color="#c822ff" />
  </linearGradient>
  <path fill="url(#J0BGbH9bfDgQk_VFK6wMhb)" d="M6 19H14V21H6z" />
  <linearGradient id="J0BGbH9bfDgQk_VFK6wMhc" x1="14" x2="14" y1="9.333" y2="53.672" gradientUnits="userSpaceOnUse" spreadMethod="reflect">
    <stop offset="0" stop-color="#1a6dff" />
    <stop offset="1" stop-color="#c822ff" />
  </linearGradient>
  <path fill="url(#J0BGbH9bfDgQk_VFK6wMhc)" d="M10 25H18V27H10z" />
  <linearGradient id="J0BGbH9bfDgQk_VFK6wMhd" x1="16" x2="16" y1="9.333" y2="53.672" gradientUnits="userSpaceOnUse" spreadMethod="reflect">
    <stop offset="0" stop-color="#1a6dff" />
    <stop offset="1" stop-color="#c822ff" />
  </linearGradient>
  <path fill="url(#J0BGbH9bfDgQk_VFK6wMhd)" d="M12 31H20V33H12z" />
  <linearGradient id="J0BGbH9bfDgQk_VFK6wMhe" x1="14" x2="14" y1="9.333" y2="53.672" gradientUnits="userSpaceOnUse" spreadMethod="reflect">
    <stop offset="0" stop-color="#1a6dff" />
    <stop offset="1" stop-color="#c822ff" />
  </linearGradient>
  <path fill="url(#J0BGbH9bfDgQk_VFK6wMhe)" d="M10 37H18V39H10z" />
  <linearGradient id="J0BGbH9bfDgQk_VFK6wMhf" x1="10" x2="10" y1="9.333" y2="53.672" gradientUnits="userSpaceOnUse" spreadMethod="reflect">
    <stop offset="0" stop-color="#1a6dff" />
    <stop offset="1" stop-color="#c822ff" />
  </linearGradient>
  <path fill="url(#J0BGbH9bfDgQk_VFK6wMhf)" d="M6 43H14V45H6z" />
  <linearGradient id="J0BGbH9bfDgQk_VFK6wMhg" x1="31.787" x2="31.787" y1="34.25" y2="44.448" gradientUnits="userSpaceOnUse" spreadMethod="reflect">
    <stop offset="0" stop-color="#6dc7ff" />
    <stop offset="1" stop-color="#e6abff" />
  </linearGradient>
  <path fill="url(#J0BGbH9bfDgQk_VFK6wMhg)" d="M26.478,43.407l2.415-8.05C28.956,35.145,29.151,35,29.373,35h7.245 c0.468,0,0.68,0.586,0.321,0.885l-9.66,8.05C26.897,44.253,26.335,43.882,26.478,43.407z" />
  <linearGradient id="J0BGbH9bfDgQk_VFK6wMhh" x1="31.787" x2="31.787" y1="19.25" y2="30.006" gradientUnits="userSpaceOnUse" spreadMethod="reflect">
    <stop offset="0" stop-color="#6dc7ff" />
    <stop offset="1" stop-color="#e6abff" />
  </linearGradient>
  <path fill="url(#J0BGbH9bfDgQk_VFK6wMhh)" d="M26.478,20.594l2.415,8.05C28.956,28.855,29.151,29,29.373,29h7.245 c0.468,0,0.68-0.585,0.321-0.885l-9.66-8.05C26.897,19.748,26.335,20.118,26.478,20.594z" />
</svg>