<?xml version="1.0" encoding="utf-8"?>
<svg xmlns="http://www.w3.org/2000/svg" viewBox="0 0 30 30" width="200" height="200">
  <path d="M7 2C5.895 2 5 2.895 5 4L5 26C5 27.105 5.895 28 7 28L23 28C24.105 28 25 27.105 25 26L25 4C25 2.895 24.105 2 23 2L18 2L18 5C18 5.552 17.552 6 17 6L13 6C12.448 6 12 5.552 12 5L12 2L7 2 z M 15 2 A 1 1 0 0 0 14 3 A 1 1 0 0 0 15 4 A 1 1 0 0 0 16 3 A 1 1 0 0 0 15 2 z M 15 10C15.872 10 16.376953 10.6875 16.376953 10.6875C17.562953 10.6875 18.269531 11.770734 18.269531 13.177734C18.269531 13.879734 17.880859 14.615234 17.880859 14.615234C17.880859 14.615234 18.097656 14.688875 18.097656 15.171875C18.097656 15.868875 17.533203 16.257812 17.533203 16.257812C17.473203 16.789813 16.828297 17.506453 16.529297 17.814453L16.529297 19.427734C17.470297 20.764734 21 20.136 21 23L9 23C9 20.136 12.529703 20.765687 13.470703 19.429688L13.470703 17.816406C13.171703 17.508406 12.527797 16.789812 12.466797 16.257812C12.466797 16.257812 11.902344 16.047875 11.902344 15.171875C11.902344 14.720875 12.119141 14.615234 12.119141 14.615234C12.119141 14.615234 11.644531 13.957281 11.644531 13.113281C11.644531 11.115281 13.147 10 15 10 z" fill="#FFFFFF" />
</svg>