<?xml version="1.0" encoding="utf-8"?>
<svg xmlns="http://www.w3.org/2000/svg" viewBox="0 0 26 26" width="55" height="55">
  <path d="M25.34375 0.59375L21.4375 3.15625L16.8125 6.21875L18.375 3.3125L15.4375 4.90625C15.4375 4.90625 13.054688 6.203125 10.34375 7.84375C7.632813 9.484375 4.636719 11.402344 3.09375 13C0.320313 15.773438 0.320313 20.226563 3.09375 23C5.867188 25.773438 10.320313 25.773438 13.09375 23C14.636719 21.457031 16.398438 18.867188 17.8125 16.59375C19.226563 14.320313 20.28125 12.375 20.28125 12.375L21.5625 10.0625L19.0625 10.96875L18.6875 11.09375L22.84375 4.53125 Z M 18.65625 7.40625L15.46875 12.46875L13.90625 14.90625L16.625 13.9375L17.15625 13.75C16.742188 14.460938 16.691406 14.566406 16.09375 15.53125C14.707031 17.757813 12.945313 20.335938 11.6875 21.59375C9.660156 23.621094 6.527344 23.621094 4.5 21.59375C2.472656 19.566406 2.472656 16.433594 4.5 14.40625L4.53125 14.40625C5.6875 13.207031 8.710938 11.171875 11.375 9.5625C12.421875 8.929688 12.519531 8.90625 13.34375 8.4375L13.125 8.8125L11.21875 12.34375L14.5625 10.125 Z M 8 15C6.300781 15 5 16.300781 5 18C5 19.699219 6.300781 21 8 21C9.699219 21 11 19.699219 11 18C11 16.300781 9.699219 15 8 15Z" fill="#FFFFFF" />
</svg>