<?xml version="1.0" encoding="utf-8"?>
<svg xmlns="http://www.w3.org/2000/svg" viewBox="0 0 30 30" width="130" height="130">
  <path d="M26.244,6.03l-7.918-1.993c-0.169-0.042-0.348-0.041-0.515,0.007L11.002,5.96L4.275,4.039 C3.973,3.953,3.648,4.013,3.398,4.202C3.147,4.391,3,4.686,3,5v18c0,0.446,0.296,0.839,0.725,0.961l7,2 c0.18,0.052,0.37,0.052,0.55,0l6.742-1.926l7.74,1.935C25.837,25.99,25.919,26,26,26c0.221,0,0.438-0.073,0.615-0.212 C26.858,25.599,27,25.308,27,25V7C27,6.542,26.688,6.142,26.244,6.03z M11,9c0.552,0,1,0.448,1,1c0,0.552-0.448,1-1,1s-1-0.448-1-1 C10,9.448,10.448,9,11,9z M7,8c0.552,0,1,0.448,1,1c0,0.552-0.448,1-1,1S6,9.552,6,9C6,8.448,6.448,8,7,8z M12.207,20.793 c0.391,0.391,0.391,1.023,0,1.414C12.012,22.402,11.756,22.5,11.5,22.5s-0.512-0.098-0.707-0.293L9,20.414l-1.793,1.793 C7.012,22.402,6.756,22.5,6.5,22.5s-0.512-0.098-0.707-0.293c-0.391-0.391-0.391-1.023,0-1.414L7.586,19l-1.793-1.793 c-0.391-0.391-0.391-1.023,0-1.414s1.023-0.391,1.414,0L9,17.586l1.793-1.793c0.391-0.391,1.023-0.391,1.414,0s0.391,1.023,0,1.414 L10.414,19L12.207,20.793z M15,20c-0.552,0-1-0.448-1-1c0-0.552,0.448-1,1-1s1,0.448,1,1C16,19.552,15.552,20,15,20z M15,10 c-0.552,0-1-0.448-1-1c0-0.552,0.448-1,1-1s1,0.448,1,1C16,9.552,15.552,10,15,10z M19,21c-0.552,0-1-0.448-1-1c0-0.552,0.448-1,1-1 s1,0.448,1,1C20,20.552,19.552,21,19,21z M19,9c-0.552,0-1-0.448-1-1c0-0.552,0.448-1,1-1s1,0.448,1,1C20,8.552,19.552,9,19,9z M23,22c-0.552,0-1-0.448-1-1c0-0.552,0.448-1,1-1s1,0.448,1,1C24,21.552,23.552,22,23,22z M23,18c-0.552,0-1-0.448-1-1 c0-0.552,0.448-1,1-1s1,0.448,1,1C24,17.552,23.552,18,23,18z M23,14c-0.552,0-1-0.448-1-1c0-0.552,0.448-1,1-1s1,0.448,1,1 C24,13.552,23.552,14,23,14z M23,10c-0.552,0-1-0.448-1-1c0-0.552,0.448-1,1-1s1,0.448,1,1C24,9.552,23.552,10,23,10z" />
</svg>