<?xml version="1.0" encoding="utf-8"?>
<svg xmlns="http://www.w3.org/2000/svg" viewBox="0 0 50 50" width="130" height="130">
  <path d="M3 7C1.300781 7 0 8.300781 0 10L0 40C0 41.699219 1.300781 43 3 43L22.8125 43C23.113281 43.398438 23.601563 43.613281 24 43.8125L24 10C24 8.300781 22.699219 7 21 7 Z M 29 7C27.300781 7 26 8.300781 26 10L26 43.8125C26.5 43.613281 26.886719 43.398438 27.1875 43L47 43C48.699219 43 50 41.699219 50 40L50 10C50 8.300781 48.699219 7 47 7 Z M 5 14L12 14C12.601563 14 13 14.398438 13 15C13 15.601563 12.601563 16 12 16L5 16C4.398438 16 4 15.601563 4 15C4 14.398438 4.398438 14 5 14 Z M 16 14C16.601563 14 17 14.398438 17 15C17 15.601563 16.601563 16 16 16C15.398438 16 15 15.601563 15 15C15 14.398438 15.398438 14 16 14 Z M 19 14C19.601563 14 20 14.398438 20 15C20 15.601563 19.601563 16 19 16C18.398438 16 18 15.601563 18 15C18 14.398438 18.398438 14 19 14 Z M 31 14L38 14C38.601563 14 39 14.398438 39 15C39 15.601563 38.601563 16 38 16L31 16C30.398438 16 30 15.601563 30 15C30 14.398438 30.398438 14 31 14 Z M 42 14C42.601563 14 43 14.398438 43 15C43 15.601563 42.601563 16 42 16C41.398438 16 41 15.601563 41 15C41 14.398438 41.398438 14 42 14 Z M 45 14C45.601563 14 46 14.398438 46 15C46 15.601563 45.601563 16 45 16C44.398438 16 44 15.601563 44 15C44 14.398438 44.398438 14 45 14 Z M 5 19L12 19C12.601563 19 13 19.398438 13 20C13 20.601563 12.601563 21 12 21L5 21C4.398438 21 4 20.601563 4 20C4 19.398438 4.398438 19 5 19 Z M 16 19C16.601563 19 17 19.398438 17 20C17 20.601563 16.601563 21 16 21C15.398438 21 15 20.601563 15 20C15 19.398438 15.398438 19 16 19 Z M 19 19C19.601563 19 20 19.398438 20 20C20 20.601563 19.601563 21 19 21C18.398438 21 18 20.601563 18 20C18 19.398438 18.398438 19 19 19 Z M 31 19L38 19C38.601563 19 39 19.398438 39 20C39 20.601563 38.601563 21 38 21L31 21C30.398438 21 30 20.601563 30 20C30 19.398438 30.398438 19 31 19 Z M 42 19C42.601563 19 43 19.398438 43 20C43 20.601563 42.601563 21 42 21C41.398438 21 41 20.601563 41 20C41 19.398438 41.398438 19 42 19 Z M 45 19C45.601563 19 46 19.398438 46 20C46 20.601563 45.601563 21 45 21C44.398438 21 44 20.601563 44 20C44 19.398438 44.398438 19 45 19 Z M 5 24L12 24C12.601563 24 13 24.398438 13 25C13 25.601563 12.601563 26 12 26L5 26C4.398438 26 4 25.601563 4 25C4 24.398438 4.398438 24 5 24 Z M 19 24C19.601563 24 20 24.398438 20 25C20 25.601563 19.601563 26 19 26C18.398438 26 18 25.601563 18 25C18 24.398438 18.398438 24 19 24 Z M 31 24L38 24C38.601563 24 39 24.398438 39 25C39 25.601563 38.601563 26 38 26L31 26C30.398438 26 30 25.601563 30 25C30 24.398438 30.398438 24 31 24 Z M 45 24C45.601563 24 46 24.398438 46 25C46 25.601563 45.601563 26 45 26C44.398438 26 44 25.601563 44 25C44 24.398438 44.398438 24 45 24 Z M 5 29L12 29C12.601563 29 13 29.398438 13 30C13 30.601563 12.601563 31 12 31L5 31C4.398438 31 4 30.601563 4 30C4 29.398438 4.398438 29 5 29 Z M 16 29C16.601563 29 17 29.398438 17 30C17 30.601563 16.601563 31 16 31C15.398438 31 15 30.601563 15 30C15 29.398438 15.398438 29 16 29 Z M 19 29C19.601563 29 20 29.398438 20 30C20 30.601563 19.601563 31 19 31C18.398438 31 18 30.601563 18 30C18 29.398438 18.398438 29 19 29 Z M 5 34L12 34C12.601563 34 13 34.398438 13 35C13 35.601563 12.601563 36 12 36L5 36C4.398438 36 4 35.601563 4 35C4 34.398438 4.398438 34 5 34 Z M 19 34C19.601563 34 20 34.398438 20 35C20 35.601563 19.601563 36 19 36C18.398438 36 18 35.601563 18 35C18 34.398438 18.398438 34 19 34Z" fill="#FFFFFF" />
</svg>