<?xml version="1.0" encoding="utf-8"?>
<svg xmlns="http://www.w3.org/2000/svg" viewBox="0 0 50 50" width="200" height="200">
  <path d="M25 1C22.789063 1 21 2.789063 21 5L21 6L12 6C10.300781 6 9 7.300781 9 9L9 46C9 47.699219 10.300781 49 12 49L38 49C39.699219 49 41 47.699219 41 46L41 9C41 7.300781 39.699219 6 38 6L29 6L29 5C29 2.789063 27.210938 1 25 1 Z M 25 3C26.191406 3 27 3.808594 27 5L27 9L23 9L23 5C23 3.808594 23.808594 3 25 3 Z M 25 4C24.449219 4 24 4.449219 24 5C24 5.550781 24.449219 6 25 6C25.550781 6 26 5.550781 26 5C26 4.449219 25.550781 4 25 4 Z M 24.90625 15C25.804688 15 26.511719 15.1875 26.8125 15.6875C29.511719 16.085938 28.710938 19.707031 28.3125 20.90625C28.414063 21.007813 28.695313 21.3125 28.59375 21.8125C28.59375 22.710938 28.199219 23 28 23C27.898438 23.898438 27.398438 24.898438 27 25L27 26.8125C27.699219 28.8125 32.707031 28.199219 32.90625 32L17 32C17.199219 28.199219 22.207031 28.8125 22.90625 26.8125C23.007813 26.113281 22.90625 25.699219 22.90625 25C22.605469 24.800781 22.007813 23.800781 21.90625 23C21.707031 23 21.289063 22.710938 21.1875 21.8125C21.085938 21.3125 21.398438 21.007813 21.5 20.90625C20.699219 17.804688 21.105469 15 24.90625 15 Z M 18 36L32 36C32.601563 36 33 36.398438 33 37C33 37.601563 32.601563 38 32 38L18 38C17.398438 38 17 37.601563 17 37C17 36.398438 17.398438 36 18 36 Z M 18 40L32 40C32.601563 40 33 40.398438 33 41C33 41.601563 32.601563 42 32 42L18 42C17.398438 42 17 41.601563 17 41C17 40.398438 17.398438 40 18 40Z" fill="#FFFFFF" />
</svg>